<svg width="131" height="30" viewBox="0 0 131 30" fill="none" xmlns="http://www.w3.org/2000/svg">
<path d="M19.2344 21.2266C19.2344 22.9193 18.8177 24.3776 17.9844 25.6016C17.1641 26.8255 15.9792 27.763 14.4297 28.4141C12.8932 29.0651 11.0573 29.3906 8.92188 29.3906C7.88021 29.3906 6.88411 29.332 5.93359 29.2148C4.98307 29.0977 4.08464 28.9284 3.23828 28.707C2.40495 28.4727 1.64323 28.1927 0.953125 27.8672V23.4531C2.11198 23.9609 3.40755 24.4232 4.83984 24.8398C6.27214 25.2435 7.73047 25.4453 9.21484 25.4453C10.4258 25.4453 11.4284 25.2891 12.2227 24.9766C13.0299 24.651 13.6289 24.1953 14.0195 23.6094C14.4102 23.0104 14.6055 22.3138 14.6055 21.5195C14.6055 20.6732 14.3776 19.957 13.9219 19.3711C13.4661 18.7852 12.776 18.2513 11.8516 17.7695C10.9401 17.2747 9.79427 16.7474 8.41406 16.1875C7.47656 15.8099 6.57812 15.3802 5.71875 14.8984C4.8724 14.4167 4.11719 13.8503 3.45312 13.1992C2.78906 12.5482 2.26172 11.7799 1.87109 10.8945C1.49349 9.99609 1.30469 8.94141 1.30469 7.73047C1.30469 6.11589 1.6888 4.73568 2.45703 3.58984C3.23828 2.44401 4.33203 1.5651 5.73828 0.953125C7.15755 0.341146 8.8112 0.0351562 10.6992 0.0351562C12.1966 0.0351562 13.6029 0.191406 14.918 0.503906C16.2461 0.816406 17.5482 1.25911 18.8242 1.83203L17.3398 5.60156C16.168 5.11979 15.0286 4.73568 13.9219 4.44922C12.8281 4.16276 11.7083 4.01953 10.5625 4.01953C9.57292 4.01953 8.73307 4.16927 8.04297 4.46875C7.35286 4.76823 6.82552 5.19141 6.46094 5.73828C6.10938 6.27214 5.93359 6.91016 5.93359 7.65234C5.93359 8.48568 6.13542 9.1888 6.53906 9.76172C6.95573 10.3216 7.59375 10.8359 8.45312 11.3047C9.32552 11.7734 10.4453 12.2943 11.8125 12.8672C13.388 13.5182 14.7227 14.2018 15.8164 14.918C16.9232 15.6341 17.7695 16.4935 18.3555 17.4961C18.9414 18.4857 19.2344 19.7292 19.2344 21.2266ZM32.3203 25.6797C32.9193 25.6797 33.5117 25.6276 34.0977 25.5234C34.6836 25.4062 35.2174 25.2695 35.6992 25.1133V28.5898C35.1914 28.8112 34.5339 29 33.7266 29.1562C32.9193 29.3125 32.0794 29.3906 31.207 29.3906C29.9831 29.3906 28.8828 29.1888 27.9062 28.7852C26.9297 28.3685 26.1549 27.6589 25.582 26.6562C25.0091 25.6536 24.7227 24.2669 24.7227 22.4961V10.875H21.7734V8.82422L24.9375 7.20312L26.4414 2.57422H29.332V7.37891H35.5234V10.875H29.332V22.4375C29.332 23.5312 29.6055 24.3451 30.1523 24.8789C30.6992 25.4128 31.4219 25.6797 32.3203 25.6797ZM48.5703 6.96875C51.3047 6.96875 53.3685 7.57422 54.7617 8.78516C56.168 9.99609 56.8711 11.8841 56.8711 14.4492V29H53.6094L52.7305 25.9336H52.5742C51.9622 26.7148 51.3307 27.3594 50.6797 27.8672C50.0286 28.375 49.2734 28.7526 48.4141 29C47.5677 29.2604 46.5326 29.3906 45.3086 29.3906C44.0195 29.3906 42.8672 29.1562 41.8516 28.6875C40.8359 28.2057 40.0352 27.4766 39.4492 26.5C38.8633 25.5234 38.5703 24.2865 38.5703 22.7891C38.5703 20.5625 39.3971 18.8893 41.0508 17.7695C42.7174 16.6497 45.2305 16.0312 48.5898 15.9141L52.3398 15.7773V14.6445C52.3398 13.1471 51.9883 12.0794 51.2852 11.4414C50.5951 10.8034 49.6185 10.4844 48.3555 10.4844C47.2747 10.4844 46.2266 10.6406 45.2109 10.9531C44.1953 11.2656 43.2057 11.6497 42.2422 12.1055L40.7578 8.86328C41.8125 8.30339 43.0104 7.84766 44.3516 7.49609C45.7057 7.14453 47.112 6.96875 48.5703 6.96875ZM52.3203 18.668L49.5273 18.7656C47.2357 18.8438 45.6276 19.2344 44.7031 19.9375C43.7786 20.6406 43.3164 21.6042 43.3164 22.8281C43.3164 23.8958 43.6354 24.6771 44.2734 25.1719C44.9115 25.6536 45.7513 25.8945 46.793 25.8945C48.3815 25.8945 49.6966 25.4453 50.7383 24.5469C51.793 23.6354 52.3203 22.3008 52.3203 20.543V18.668ZM74.2539 6.96875C74.6185 6.96875 75.0156 6.98828 75.4453 7.02734C75.875 7.06641 76.2461 7.11849 76.5586 7.18359L76.1289 11.4805C75.8555 11.4023 75.5169 11.3438 75.1133 11.3047C74.7227 11.2656 74.3711 11.2461 74.0586 11.2461C73.2383 11.2461 72.457 11.3828 71.7148 11.6562C70.9727 11.9167 70.3151 12.3203 69.7422 12.8672C69.1693 13.401 68.7201 14.0716 68.3945 14.8789C68.069 15.6862 67.9062 16.6237 67.9062 17.6914V29H63.2969V7.37891H66.8906L67.5156 11.1875H67.7305C68.1602 10.4193 68.694 9.71615 69.332 9.07812C69.9701 8.4401 70.6992 7.93229 71.5195 7.55469C72.3529 7.16406 73.2643 6.96875 74.2539 6.96875ZM104.215 14.4492C104.215 17.6654 103.616 20.3542 102.418 22.5156C101.22 24.6641 99.4818 26.2852 97.2031 27.3789C94.9245 28.4596 92.1771 29 88.9609 29H81.0312V0.445312H89.8203C92.776 0.445312 95.3281 0.979167 97.4766 2.04688C99.625 3.10156 101.285 4.67057 102.457 6.75391C103.629 8.82422 104.215 11.3893 104.215 14.4492ZM99.332 14.5859C99.332 12.2422 98.9609 10.3151 98.2188 8.80469C97.4896 7.29427 96.4089 6.17448 94.9766 5.44531C93.5573 4.70312 91.806 4.33203 89.7227 4.33203H85.7188V25.0742H89.0391C92.4896 25.0742 95.0677 24.1953 96.7734 22.4375C98.4792 20.6797 99.332 18.0625 99.332 14.5859ZM110.367 0.445312H118.863C122.548 0.445312 125.328 0.979167 127.203 2.04688C129.078 3.11458 130.016 4.95703 130.016 7.57422C130.016 8.66797 129.82 9.65755 129.43 10.543C129.052 11.4154 128.499 12.138 127.77 12.7109C127.04 13.2708 126.142 13.6484 125.074 13.8438V14.0391C126.181 14.2344 127.164 14.5794 128.023 15.0742C128.896 15.569 129.579 16.2786 130.074 17.2031C130.582 18.1276 130.836 19.3255 130.836 20.7969C130.836 22.5417 130.419 24.026 129.586 25.25C128.766 26.474 127.587 27.4049 126.051 28.043C124.527 28.681 122.717 29 120.621 29H110.367V0.445312ZM115.055 12.2227H119.547C121.669 12.2227 123.141 11.8776 123.961 11.1875C124.781 10.4974 125.191 9.48828 125.191 8.16016C125.191 6.80599 124.703 5.82943 123.727 5.23047C122.763 4.63151 121.227 4.33203 119.117 4.33203H115.055V12.2227ZM115.055 16.0117V25.0742H119.996C122.184 25.0742 123.72 24.651 124.605 23.8047C125.491 22.9583 125.934 21.8125 125.934 20.3672C125.934 19.4818 125.732 18.7135 125.328 18.0625C124.938 17.4115 124.293 16.9102 123.395 16.5586C122.496 16.194 121.285 16.0117 119.762 16.0117H115.055Z" fill="white"/>
</svg>
